<?xml version="1.0" encoding="UTF-8"?>
<svg width="32px" height="28px" viewBox="0 0 32 28" version="1.1" xmlns="http://www.w3.org/2000/svg" xmlns:xlink="http://www.w3.org/1999/xlink">
    <!-- Generator: Sketch 48.2 (47327) - http://www.bohemiancoding.com/sketch -->
    <title>logo copy</title>
    <desc>Created with Sketch.</desc>
    <defs></defs>
    <g id="Artboard" stroke="none" stroke-width="1" fill="none" fill-rule="evenodd" transform="translate(-555.000000, -1526.000000)">
        <g id="logo-copy" transform="translate(556.000000, 1527.000000)" stroke="#3894FF" stroke-width="1.6">
            <path d="M23.3412667,25.8182222 L1.80626667,10.5882338 C0.0692666667,9.3597524 -0.357566667,6.93459285 0.8526,5.17154787 C1.0776,4.84387389 1.3511,4.55324721 1.66326667,4.30981776 L6.84126667,0.274200692 L27.7951,15.0398293 C29.8366,16.4784145 30.3426,19.3242891 28.9252667,21.3963998 C28.6361,21.8191449 28.2786,22.1892795 27.8679333,22.4910711 L23.3412667,25.8182222 Z" id="Stroke-1"></path>
            <path d="M12.0079333,7.88665744 L1.9606,15.2025667 C-0.0587333333,16.672955 -0.5214,19.5266113 0.927266667,21.5763922 C1.24326667,22.023328 1.63626667,22.4090258 2.0876,22.7142007 L6.6746,25.8182222 L12.1604333,21.9735932" id="Stroke-3"></path>
            <path d="M17.8412667,17.8674341 L28.1482667,10.5796063 C29.9609333,9.29800692 30.4067667,6.76745713 29.1439333,4.92761092 C28.9026,4.57591542 28.6079333,4.26515802 28.2707667,4.00718032 L23.1746,0.105034987 L17.8412667,3.99584621" id="Stroke-5"></path>
        </g>
    </g>
</svg>