<?xml version="1.0" encoding="UTF-8"?>
<svg width="30px" height="30px" viewBox="0 0 30 30" version="1.1" xmlns="http://www.w3.org/2000/svg" xmlns:xlink="http://www.w3.org/1999/xlink">
    <!-- Generator: Sketch 48.2 (47327) - http://www.bohemiancoding.com/sketch -->
    <title>angel_ico</title>
    <desc>Created with Sketch.</desc>
    <defs></defs>
    <g id="DelegateCall--Index-1-Copy-5" stroke="none" stroke-width="1" fill="none" fill-rule="evenodd" transform="translate(-474.000000, -984.000000)">
        <g id="angel_ico" transform="translate(474.000000, 984.000000)" fill="#FFFFFF">
            <g id="angel">
                <rect id="Rectangle-2-Copy-2" opacity="0.01" x="0" y="0" width="30" height="30"></rect>
                <path d="M19.5318917,12.5323095 C20.057882,11.0896294 21.5729139,6.91647814 21.5729139,5.58000764 C21.5729139,4.40285149 20.8670978,3.41598751 19.6083177,3.41598751 C17.6032607,3.41598751 15.8050033,9.24423803 15.2430479,10.6338133 C14.8069705,9.37257461 12.7659483,3 10.9676909,3 C9.56954583,3 8.91318189,4.01341638 8.91318189,5.2879313 C8.91318189,6.85009716 10.4506919,10.8993373 11.0081517,12.4570777 C10.7249262,12.3552936 10.4192224,12.2667856 10.109023,12.2667856 C9.05704248,12.2667856 7.93762725,13.5545767 7.93762725,14.5945455 C7.93762725,14.988406 8.15791378,15.5415809 8.29727873,15.908889 C6.63838629,16.3514289 6.00000492,17.440077 6.00000492,19.0819001 C5.99550928,22.2770382 9.07052941,25.658043 13.3953384,25.658043 C18.7001977,25.658043 22,21.7371395 22,16.6789084 C22,14.7715614 21.6898006,13.0500812 19.5318917,12.5323095 Z M17.940434,7.77943095 C18.1202597,7.23510687 18.8890147,4.93389938 19.6083177,4.93389938 C19.994943,4.93389938 20.0983428,5.32775989 20.0983428,5.64196322 C20.0983428,6.48721444 18.3630244,11.1560104 17.9808947,12.1915538 L16.452376,11.9260298 L17.940434,7.77943095 Z M10.3248139,5.13746773 C10.3248139,4.61084525 10.9766822,3.11506037 12.4062969,7.22183068 L13.9617895,11.6605059 C13.2604691,11.6029757 12.7164963,11.5277439 12.3703317,11.7224615 C11.8803066,10.4479466 10.3248139,6.42525885 10.3248139,5.13746773 Z M10.2214141,13.7979736 C11.5386377,13.7979736 13.2379909,17.9844011 13.2379909,18.5508522 C13.2379909,18.7765475 13.0177044,19.0553477 12.7614527,19.0553477 C11.8218632,19.0553477 9.30430287,15.6522158 9.30430287,14.7317328 C9.30879851,14.3909771 9.87524959,13.7979736 10.2214141,13.7979736 Z M18.506885,22.042492 C17.1986528,23.4586197 15.5262734,24.193236 13.5751642,24.193236 C10.9047519,24.193236 8.79629516,22.7505559 7.78027973,20.2856086 C7.0115247,18.3649854 7.95111418,17.2630611 8.70638229,17.2630611 C9.21888564,17.2630611 11.1475167,19.9315767 11.1475167,20.4980278 C11.1475167,20.7148723 10.8013521,20.8653359 10.6215264,20.8653359 C9.8977278,20.8653359 9.61450227,20.179399 8.32425259,18.5906808 C6.98904648,19.9050243 9.2458595,22.4363525 10.9452127,22.4363525 C12.1185757,22.4363525 12.8828351,21.365406 12.6535572,20.577685 C12.8198961,20.577685 13.0266957,20.5909612 13.1795475,20.5511326 C13.2289996,21.7504157 13.5886511,23.1798196 15.0542309,23.2816038 C15.0542309,23.2417752 15.1441437,22.9674004 15.1441437,22.9541242 C15.1441437,22.1841048 14.6676055,21.5114441 14.6676055,20.7281485 C14.6676055,19.4757606 15.6431601,18.2632013 16.6322017,17.5551374 C16.9918532,17.2896135 17.4279306,17.1258737 17.8505211,16.9754101 C18.2865985,16.8116704 18.7496498,16.6213782 19.0823274,16.2938987 C19.0328753,15.798254 18.8260757,15.3601395 18.3225636,15.3601395 C17.0772704,15.3601395 12.9008176,15.5371555 12.9008176,13.6032561 C12.9008176,13.3067543 12.9053133,13.0235288 13.6830596,13.0235288 C15.1351524,13.0235288 18.8215801,13.3775607 19.9005345,14.3113199 C20.714246,15.0238092 20.9929759,19.3208716 18.506885,22.042492 Z M14.0741806,16.4664893 C14.510258,16.6036766 14.9598223,16.6435052 15.4093867,16.7320132 C15.0767091,16.9709847 14.7799966,17.2630611 14.4967711,17.5772644 C14.370893,17.2011055 14.2180412,16.8337974 14.0741806,16.4664893 Z" id="Shape" fill-rule="nonzero"></path>
            </g>
        </g>
    </g>
</svg>