<svg id="_ÎÓÈ_1" data-name="—ÎÓÈ_1" xmlns="http://www.w3.org/2000/svg" viewBox="0 0 360 160"><defs><style>.cls-1{fill:#fff;}</style></defs><title>white-text-transparent-bg</title><rect class="cls-1" x="58.05" y="43.38" width="9.03" height="59.07"/><path class="cls-1" d="M93.16,67.32a18.46,18.46,0,0,0-13.38,5.17,17.59,17.59,0,0,0-5.3,13.09,17.66,17.66,0,0,0,5.26,13.09,18.31,18.31,0,0,0,13.34,5.17,18.31,18.31,0,0,0,13.34-5.17,17.77,17.77,0,0,0,5.26-13.17,17.6,17.6,0,0,0-5.21-13A18.26,18.26,0,0,0,93.16,67.32Zm8.75,18.26a9.19,9.19,0,0,1-2.47,6.58,8.33,8.33,0,0,1-6.27,2.59,8.56,8.56,0,0,1-6.4-2.59,9.21,9.21,0,0,1-2.51-6.66A9,9,0,0,1,86.75,79a9.05,9.05,0,0,1,12.64,0A9.11,9.11,0,0,1,101.9,85.57Z"/><path class="cls-1" d="M134.5,67.32a18.46,18.46,0,0,0-13.38,5.17,17.59,17.59,0,0,0-5.3,13.09,17.66,17.66,0,0,0,5.26,13.09,19.79,19.79,0,0,0,26.67,0A17.77,17.77,0,0,0,153,85.49a17.6,17.6,0,0,0-5.21-13A18.26,18.26,0,0,0,134.5,67.32Zm8.75,18.26a9.19,9.19,0,0,1-2.47,6.58,8.33,8.33,0,0,1-6.27,2.59,8.56,8.56,0,0,1-6.4-2.59,9.21,9.21,0,0,1-2.51-6.66A9,9,0,0,1,128.1,79a9.05,9.05,0,0,1,12.64,0A9.11,9.11,0,0,1,143.25,85.57Z"/><path class="cls-1" d="M211,71.74c-2.68-2.94-6.44-4.42-11.2-4.42a14.9,14.9,0,0,0-12.55,6c-2.7-4-6.68-6-11.83-6s-9,1.48-11.91,4.41-4.32,7-4.32,12.15v18.93H169V83.88a7.87,7.87,0,0,1,1.76-5.49,6.41,6.41,0,0,1,5-1.91,6,6,0,0,1,4.75,2,7.85,7.85,0,0,1,1.81,5.37v18.93H192V83.88a7.38,7.38,0,0,1,2-5.31,6.74,6.74,0,0,1,5.05-2.08,5.58,5.58,0,0,1,4.57,1.94,8.29,8.29,0,0,1,1.65,5.46v18.93H215V83.88C215,78.75,213.68,74.66,211,71.74Z"/><path class="cls-1" d="M286.69,113.67l-49.89-35a12.93,12.93,0,0,1,0-21.17L248.89,49l49.89,35a12.93,12.93,0,0,1,0,21.17Zm-37.81-59-9.42,6.59a8.31,8.31,0,0,0,0,13.62L286.7,108l9.42-6.59a8.31,8.31,0,0,0,0-13.62Z"/><path class="cls-1" d="M248.84,108l-9.41-6.6a8.31,8.31,0,0,1,0-13.62l24.34-17-4-2.82L236.8,84a12.93,12.93,0,0,0,0,21.17l12.05,8.46,14.91-10.43-4-2.82Z"/><path class="cls-1" d="M298.8,57.52l-12.06-8.46L271.82,59.5l4,2.82,10.9-7.63,9.41,6.6a8.31,8.31,0,0,1,0,13.62l-24.34,17,4,2.82,23-16.07a12.93,12.93,0,0,0,0-21.17Z"/><rect class="cls-1" x="238.89" y="74.93" width="23.16" height="4.61" transform="translate(0.96 157.53) rotate(-34.98)"/><path class="cls-1" d="M293.7,76.62l-9.24,6.47,2.64,3.78,9.59-6.71C295.67,79,294.69,77.81,293.7,76.62Z"/></svg>