<svg xmlns="http://www.w3.org/2000/svg" width="37" height="25" viewBox="0 0 37 25">
    <g fill="none" fill-rule="nonzero">
        <path d="M-3-4h44.333v30H-3z" opacity=".544"/>
        <path fill="#48BEFF" d="M32.95 6.23c.022.274.022.547.022.82 0 8.34-7.458 17.95-21.09 17.95-4.2 0-8.1-1.035-11.382-2.832.597.059 1.17.078 1.79.078 3.465 0 6.655-.996 9.202-2.695-3.258-.059-5.99-1.875-6.93-4.375.459.058.918.097 1.4.097.665 0 1.33-.078 1.95-.214-3.396-.586-5.943-3.125-5.943-6.192V8.79a8.475 8.475 0 0 0 3.35.8C3.323 8.458 2.015 6.524 2.015 4.337c0-1.172.367-2.246 1.01-3.184C6.672 4.98 12.157 7.48 18.307 7.754a6.107 6.107 0 0 1-.184-1.445C18.124 2.832 21.43 0 25.537 0c2.134 0 4.062.762 5.416 1.992 1.675-.273 3.281-.8 4.704-1.523-.55 1.465-1.721 2.695-3.259 3.476a16.95 16.95 0 0 0 4.269-.976 14.874 14.874 0 0 1-3.718 3.261z"/>
    </g>
</svg>
