<?xml version="1.0" encoding="UTF-8"?>
<svg width="58px" height="58px" viewBox="0 0 58 58" version="1.1" xmlns="http://www.w3.org/2000/svg" xmlns:xlink="http://www.w3.org/1999/xlink">
    <!-- Generator: Sketch 50.2 (55047) - http://www.bohemiancoding.com/sketch -->
    <title>Artboard</title>
    <desc>Created with Sketch.</desc>
    <defs></defs>
    <g id="Artboard" stroke="none" stroke-width="1" fill="none" fill-rule="evenodd">
        <g id="twitter-icon" transform="translate(-7.000000, -7.000000)" fill="#FFFFFF" fill-rule="nonzero">
            <rect id="Rectangle-2" opacity="0.01" x="0" y="0" width="71" height="71"></rect>
            <g id="bird" transform="translate(12.000000, 17.000000)">
                <path d="M45.7273072,10.0132619 C45.759659,10.4480688 45.759659,10.8829713 45.759659,11.3177782 C45.759659,24.5799621 35.2495553,39.8611111 16.0401443,39.8611111 C10.1220829,39.8611111 4.62449335,38.2149061 0,35.3575901 C0.840844121,35.4507083 1.64923706,35.4817795 2.52243282,35.4817795 C7.40554025,35.4817795 11.9007266,33.8978129 15.4903655,31.195662 C10.8982238,31.1024482 7.04987123,28.213965 5.72395153,24.2383693 C6.37078533,24.3314874 7.01751959,24.3936302 7.69670503,24.3936302 C8.63450455,24.3936302 9.57240361,24.2693449 10.4454998,24.0520371 C5.65934779,23.1201851 2.06960934,19.0825422 2.06960934,14.2062612 L2.06960934,14.0820716 C3.4601328,14.8274959 5.07721729,15.2933741 6.79105809,15.355421 C3.97756002,13.5539553 2.13431263,10.4791401 2.13431263,7.00049368 C2.13431263,5.1369809 2.65164032,3.428729 3.55718771,1.93788054 C8.69910829,8.02546393 16.428165,12.0009642 25.0949217,12.4358667 C24.9332629,11.6904425 24.836208,10.9140426 24.836208,10.1375471 C24.836208,4.60896013 29.493053,0.105439068 35.2817079,0.105439068 C38.2892163,0.105439068 41.0056593,1.31674149 42.9137096,3.27346814 C45.2743841,2.83866124 47.5381034,2.00002313 49.5432086,0.850863296 C48.7669683,3.18034987 47.1177312,5.13707652 44.9510669,6.37935461 C47.0531274,6.16204677 49.0904847,5.60285909 50.9660838,4.82645919 C49.5434078,6.81416151 47.7646645,8.5844604 45.7273072,10.0132619 Z" id="Shape"></path>
            </g>
        </g>
    </g>
</svg>